<?xml version="1.0" standalone="no"?>
<!DOCTYPE svg PUBLIC "-//W3C//DTD SVG 20010904//EN"
 "http://www.w3.org/TR/2001/REC-SVG-20010904/DTD/svg10.dtd">
<svg version="1.0" xmlns="http://www.w3.org/2000/svg"
 width="512.000000pt" height="512.000000pt" viewBox="0 0 512.000000 512.000000"
 preserveAspectRatio="xMidYMid meet">
<metadata>
Created by potrace 1.11, written by Peter Selinger 2001-2013
</metadata>
<g transform="translate(0.000000,512.000000) scale(0.100000,-0.100000)"
fill="#000000" stroke="none">
<path d="M0 3927 l0 -1192 305 -305 305 -305 0 738 c0 798 -2 768 55 835 105
125 312 97 381 -51 l24 -52 0 -735 0 -735 318 317 c338 339 350 348 446 348
115 0 224 -110 226 -229 1 -94 11 -81 -554 -650 -360 -361 -544 -539 -571
-552 -49 -23 -132 -24 -183 -4 -25 11 -153 131 -394 373 l-358 357 0 -1043 0
-1042 1203 0 1202 0 293 293 c160 160 292 295 292 300 0 4 -330 7 -732 7 -693
0 -735 1 -773 19 -179 83 -179 334 -1 417 l51 24 730 0 730 0 -307 308 c-331
332 -347 352 -348 450 0 88 45 163 124 205 53 28 155 30 206 3 46 -24 1054
-1028 1086 -1082 31 -53 40 -121 24 -181 -12 -44 -43 -78 -369 -405 l-355
-358 1032 0 1032 0 0 1198 0 1197 -295 295 -295 295 0 -725 c0 -480 -4 -738
-11 -763 -13 -49 -73 -115 -124 -138 -85 -39 -196 -17 -262 52 -66 70 -63 33
-63 841 l0 732 -308 -306 c-333 -333 -352 -348 -452 -348 -128 0 -230 102
-230 229 0 94 -11 82 549 644 306 307 543 537 566 550 52 28 154 29 205 3 19
-10 189 -172 377 -359 l343 -342 0 1033 0 1032 -1193 0 -1192 0 -300 -300
-300 -300 735 0 735 0 50 -24 c60 -28 87 -56 114 -116 37 -81 23 -171 -38
-241 -70 -83 -21 -79 -856 -79 l-739 0 320 -322 c338 -341 344 -348 344 -438
0 -85 -59 -177 -134 -211 -54 -24 -139 -24 -191 0 -56 27 -1088 1062 -1110
1113 -18 45 -19 105 -3 162 10 35 67 97 367 399 l355 357 -1042 0 -1042 0 0
-1193z"/>
</g>
</svg>
